<?xml version="1.0" standalone="no"?>
<!DOCTYPE svg PUBLIC "-//W3C//DTD SVG 20010904//EN"
 "http://www.w3.org/TR/2001/REC-SVG-20010904/DTD/svg10.dtd">
<svg version="1.0" xmlns="http://www.w3.org/2000/svg"
 width="600.000000pt" height="600.000000pt" viewBox="0 0 600.000000 600.000000"
 preserveAspectRatio="xMidYMid meet">

<g transform="translate(0.000000,600.000000) scale(0.100000,-0.100000)"
fill="white" stroke="white">
<path d="M3594 4516 c-3 -8 -4 -23 -2 -33 3 -17 30 -18 476 -23 l472 -5 -805
-805 c-443 -443 -805 -809 -805 -814 0 -5 10 -20 22 -33 l22 -24 813 813 813
813 0 -472 c0 -450 1 -473 19 -482 13 -7 23 -7 35 2 15 11 16 59 14 542 l-3
530 -533 3 c-458 2 -533 0 -538 -12z"/>
<path d="M1622 4138 c-17 -17 -17 -2639 0 -2656 17 -17 2639 -17 2656 0 17 17
17 1909 0 1926 -18 18 -46 14 -58 -7 -7 -13 -10 -325 -10 -940 l0 -921 -1265
0 -1265 0 0 1265 0 1265 931 2 c875 3 932 4 943 21 8 12 8 22 0 35 -11 16 -69
17 -966 20 -734 2 -957 -1 -966 -10z"/>
</g>
</svg>
