<?xml version="1.0" standalone="no"?>
<!DOCTYPE svg PUBLIC "-//W3C//DTD SVG 20010904//EN"
 "http://www.w3.org/TR/2001/REC-SVG-20010904/DTD/svg10.dtd">
<svg version="1.0" xmlns="http://www.w3.org/2000/svg"
 width="512.000000pt" height="512.000000pt" viewBox="0 0 512.000000 512.000000"
 preserveAspectRatio="xMidYMid meet">

<g transform="translate(0.000000,512.000000) scale(0.100000,-0.100000)"
fill="#000000" stroke="none">
<path d="M2405 4804 c-231 -24 -440 -73 -626 -145 -1106 -431 -1699 -1608
-1385 -2749 216 -788 845 -1403 1640 -1605 208 -53 342 -69 571 -68 295 0 557
48 812 148 614 240 1090 718 1322 1327 100 265 144 508 144 808 0 285 -31 479
-119 740 -246 729 -857 1293 -1607 1481 -64 16 -161 36 -215 45 -93 15 -452
27 -537 18z m-553 -1060 c68 -20 138 -75 171 -138 31 -58 31 -184 0 -241 -29
-55 -78 -100 -138 -127 -71 -32 -189 -31 -263 1 -93 41 -162 146 -162 246 0
57 30 135 67 176 79 87 200 118 325 83z m1602 -724 c185 -47 314 -167 383
-357 46 -128 53 -219 53 -740 l0 -483 -265 0 -264 0 -3 488 c-3 478 -3 488
-25 543 -42 102 -117 152 -228 152 -117 0 -207 -60 -259 -172 -20 -45 -21 -60
-24 -528 l-3 -483 -260 0 -259 0 0 785 0 785 260 0 260 0 0 -112 0 -111 28 39
c73 99 178 171 290 198 86 21 225 20 316 -4z m-1436 -797 l2 -783 -265 0 -265
0 0 778 c0 428 3 782 7 785 4 4 122 6 262 5 l256 -3 3 -782z"/>
</g>
</svg>
