
<svg version="1.0" xmlns="http://www.w3.org/2000/svg"
  viewBox="0 0 1000 1000"
 preserveAspectRatio="xMidYMid meet">

<g transform="translate(0.000000,1080.000000) scale(0.100000,-0.100000)"
fill="#000000" stroke="none">
<path d="M4990 8145 c-8 -2 -51 -9 -95 -16 -44 -6 -129 -27 -190 -46 -461
-141 -803 -424 -939 -778 -41 -105 -44 -113 -61 -200 -9 -44 -18 -89 -20 -99
-4 -22 -8 -25 72 74 34 41 77 91 98 110 20 19 58 78 85 130 134 260 369 453
715 588 163 64 263 84 470 92 122 5 210 13 245 24 30 8 96 21 147 28 51 7 89
15 85 19 -15 14 -115 41 -222 59 -100 18 -333 26 -390 15z"/>
<path d="M4510 7527 c-272 -158 -546 -387 -691 -579 -225 -300 -213 -539 39
-780 173 -165 463 -320 807 -431 228 -73 588 -152 810 -176 55 -7 110 -14 122
-16 19 -4 30 8 74 82 89 151 192 354 183 362 -5 4 -43 33 -84 64 -66 49 -163
147 -282 282 -19 22 -106 130 -194 240 -87 110 -215 268 -284 350 -237 285
-235 282 -368 480 -51 77 -94 140 -95 141 -1 1 -18 -8 -37 -19z"/>
<path d="M6404 7262 c-12 -169 -11 -216 10 -317 10 -49 29 -144 42 -210 42
-216 120 -333 271 -406 61 -29 94 -37 319 -78 157 -29 307 -80 469 -161 176
-88 296 -174 447 -319 306 -294 507 -689 557 -1096 6 -44 15 -118 22 -165 17
-137 -7 -370 -55 -528 -13 -42 -26 -91 -29 -108 -9 -46 -110 -227 -178 -317
-81 -107 -211 -259 -285 -332 -212 -211 -552 -384 -899 -460 -154 -33 -258
-46 -458 -54 l-172 -8 165 -1 c553 -5 1117 213 1498 582 310 299 482 652 512
1051 42 553 -183 1115 -611 1530 -297 288 -633 458 -1034 524 -166 28 -227 52
-296 121 -63 62 -89 119 -113 247 -8 43 -24 130 -36 193 -23 121 -76 297 -114
380 l-23 50 -9 -118z"/>
<path d="M3602 6212 c-19 -55 -87 -148 -155 -212 -235 -219 -297 -297 -357
-452 -46 -119 -63 -233 -56 -378 3 -69 11 -151 18 -183 l13 -59 25 34 c13 18
41 51 61 73 l37 40 5 145 c9 275 77 416 291 597 109 92 163 150 215 231 l33
52 -22 27 c-12 16 -35 47 -53 71 -17 23 -34 42 -38 42 -4 0 -11 -13 -17 -28z"/>
<path d="M5568 4963 c-6 -16 -13 -64 -15 -108 l-4 -80 180 -538 c100 -296 190
-555 201 -577 45 -87 130 -155 232 -185 50 -14 128 -16 680 -13 622 3 623 3
679 26 67 27 141 89 181 151 15 25 55 129 89 231 33 102 68 210 79 242 l18 56
-61 22 c-136 48 -232 88 -602 247 -217 94 -372 147 -683 234 -425 119 -738
221 -925 303 l-37 16 -12 -27z"/>
<path d="M3369 4913 c-79 -84 -166 -225 -213 -345 -110 -281 -86 -577 66 -802
137 -202 354 -344 596 -392 108 -21 300 -18 424 6 101 20 225 56 241 70 10 9
-36 102 -153 310 -215 382 -297 498 -589 840 -124 145 -311 353 -321 358 -4 1
-27 -19 -51 -45z"/>
<path d="M5072 3756 c-18 -39 -32 -75 -32 -79 0 -11 73 -118 123 -181 55 -71
280 -283 368 -348 73 -54 227 -150 262 -163 33 -13 17 3 -35 36 -73 44 -208
149 -208 161 0 6 9 4 19 -3 142 -103 284 -181 310 -171 10 4 12 1 6 -8 -5 -8
-4 -11 2 -7 5 3 59 -14 119 -39 60 -25 132 -50 159 -54 28 -5 101 -23 164 -40
63 -17 119 -29 124 -27 5 1 -34 15 -87 29 -297 84 -591 239 -826 437 -143 119
-248 243 -365 429 -32 51 -61 94 -64 96 -3 2 -21 -29 -39 -68z"/>
</g>
</svg>
