<?xml version="1.0" standalone="no"?>
<!DOCTYPE svg PUBLIC "-//W3C//DTD SVG 20010904//EN"
 "http://www.w3.org/TR/2001/REC-SVG-20010904/DTD/svg10.dtd">
<svg version="1.0" xmlns="http://www.w3.org/2000/svg"
 width="150.000000pt" height="105.000000pt" viewBox="0 0 150.000000 105.000000"
 preserveAspectRatio="xMidYMid meet">

<g transform="translate(0.000000,105.000000) scale(0.100000,-0.100000)"
fill="#000000" stroke="none">
<path d="M645 866 c-152 -38 -257 -151 -286 -309 -47 -253 185 -485 438 -438
168 31 283 146 314 314 37 198 -97 393 -299 436 -65 14 -102 13 -167 -3z m-24
-112 c17 -8 37 -13 44 -10 17 6 185 -49 202 -67 14 -14 143 -321 143 -341 0
-19 -14 -28 -104 -65 -169 -70 -173 -71 -190 -58 -18 13 -146 312 -146 340 0
10 7 32 16 50 l16 32 -31 -30 -30 -30 15 -150 c8 -82 16 -155 18 -161 3 -8 21
-10 52 -6 37 4 46 2 42 -9 -3 -9 -23 -15 -56 -17 -41 -2 -53 1 -60 15 -5 10
-15 81 -22 158 -6 77 -14 148 -16 157 -3 10 10 33 32 58 29 32 39 38 50 29 29
-24 12 9 -21 41 -38 36 -42 49 -23 68 16 16 33 15 69 -4z"/>
<path d="M570 734 c0 -18 46 -48 60 -39 8 5 6 13 -5 25 -21 24 -55 32 -55 14z"/>
<path d="M720 649 c0 -6 -8 -9 -20 -6 -26 7 -27 -19 -2 -32 29 -16 60 27 32
44 -5 3 -10 1 -10 -6z"/>
<path d="M811 528 c-5 -13 -23 -56 -40 -97 -33 -79 -38 -105 -19 -99 13 5 87
173 88 201 0 24 -19 21 -29 -5z"/>
<path d="M692 498 c-29 -29 -2 -72 40 -66 17 2 24 11 26 32 5 41 -37 63 -66
34z m38 -28 c0 -5 -4 -10 -10 -10 -5 0 -10 5 -10 10 0 6 5 10 10 10 6 0 10 -4
10 -10z"/>
<path d="M827 443 c-11 -11 -8 -48 5 -61 30 -30 75 0 64 43 -5 19 -13 25 -35
25 -15 0 -31 -3 -34 -7z m43 -33 c0 -5 -4 -10 -10 -10 -5 0 -10 5 -10 10 0 6
5 10 10 10 6 0 10 -4 10 -10z"/>
</g>
</svg>
